<mxfile host="Electron" modified="2023-07-08T14:42:39.993Z" agent="Mozilla/5.0 (Macintosh; Intel Mac OS X 10_15_7) AppleWebKit/537.36 (KHTML, like Gecko) draw.io/21.6.1 Chrome/112.0.5615.204 Electron/24.6.1 Safari/537.36" etag="2g4lKKDfwWyD7_Rfveln" version="21.6.1" type="device">
  <diagram name="Страница 1" id="5N9WhQZ5_KAaPMGFqKfK">
    <mxGraphModel dx="371" dy="1684" grid="1" gridSize="10" guides="1" tooltips="1" connect="1" arrows="1" fold="1" page="1" pageScale="1" pageWidth="827" pageHeight="1169" math="0" shadow="0">
      <root>
        <mxCell id="0" />
        <mxCell id="1" parent="0" />
        <mxCell id="ijA1hd0vn6d_UnfHsXCk-1" value="" style="rounded=0;whiteSpace=wrap;html=1;fillColor=#e1d5e7;strokeColor=#9673a6;" vertex="1" parent="1">
          <mxGeometry x="2320" y="220" width="160" height="400" as="geometry" />
        </mxCell>
        <mxCell id="ijA1hd0vn6d_UnfHsXCk-2" value="Найм персонала" style="shape=note;size=20;whiteSpace=wrap;html=1;fillColor=#d5e8d4;strokeColor=#82b366;" vertex="1" parent="1">
          <mxGeometry x="1859.88" y="240" width="100" height="100" as="geometry" />
        </mxCell>
        <mxCell id="ijA1hd0vn6d_UnfHsXCk-3" value="Поддомены" style="text;html=1;strokeColor=none;fillColor=none;align=center;verticalAlign=middle;whiteSpace=wrap;rounded=0;fontSize=16;" vertex="1" parent="1">
          <mxGeometry x="1988.9399999999998" y="170" width="99.5" height="30" as="geometry" />
        </mxCell>
        <mxCell id="ijA1hd0vn6d_UnfHsXCk-4" value="High" style="text;html=1;strokeColor=none;fillColor=none;align=center;verticalAlign=middle;whiteSpace=wrap;rounded=0;" vertex="1" parent="1">
          <mxGeometry x="2601.75" y="210" width="60" height="30" as="geometry" />
        </mxCell>
        <mxCell id="ijA1hd0vn6d_UnfHsXCk-5" value="High" style="text;html=1;strokeColor=none;fillColor=none;align=center;verticalAlign=middle;whiteSpace=wrap;rounded=0;" vertex="1" parent="1">
          <mxGeometry x="3109.5" y="690" width="60" height="30" as="geometry" />
        </mxCell>
        <mxCell id="ijA1hd0vn6d_UnfHsXCk-6" value="Low" style="text;html=1;strokeColor=none;fillColor=none;align=center;verticalAlign=middle;whiteSpace=wrap;rounded=0;" vertex="1" parent="1">
          <mxGeometry x="2599.63" y="660" width="60" height="30" as="geometry" />
        </mxCell>
        <mxCell id="ijA1hd0vn6d_UnfHsXCk-7" value="Model Complexity" style="text;html=1;strokeColor=none;fillColor=none;align=center;verticalAlign=middle;whiteSpace=wrap;rounded=0;fontSize=16;fontStyle=1" vertex="1" parent="1">
          <mxGeometry x="2545.25" y="430" width="110" height="40" as="geometry" />
        </mxCell>
        <mxCell id="ijA1hd0vn6d_UnfHsXCk-8" value="Business Differentiation" style="text;html=1;strokeColor=none;fillColor=none;align=center;verticalAlign=middle;whiteSpace=wrap;rounded=0;fontSize=16;fontStyle=1" vertex="1" parent="1">
          <mxGeometry x="2833.75" y="710" width="120" height="40" as="geometry" />
        </mxCell>
        <mxCell id="ijA1hd0vn6d_UnfHsXCk-9" value="&lt;br&gt;&lt;br&gt;&lt;br&gt;G&lt;br&gt;E&lt;br&gt;N&lt;br&gt;E&lt;br&gt;R&lt;br&gt;I&lt;br&gt;C&lt;br&gt;&lt;br&gt;" style="rounded=0;whiteSpace=wrap;html=1;fillColor=#bac8d3;strokeColor=none;fontSize=18;fontColor=#808080;fontStyle=1;verticalAlign=middle;" vertex="1" parent="1">
          <mxGeometry x="2661.75" y="210" width="157.75" height="480" as="geometry" />
        </mxCell>
        <mxCell id="ijA1hd0vn6d_UnfHsXCk-10" value="" style="shape=corner;whiteSpace=wrap;html=1;direction=north;dx=120;dy=160;fillColor=#d0cee2;strokeColor=none;align=center;" vertex="1" parent="1">
          <mxGeometry x="2819.5" y="210" width="340" height="480" as="geometry" />
        </mxCell>
        <mxCell id="ijA1hd0vn6d_UnfHsXCk-11" value="Supporting" style="text;html=1;strokeColor=none;fillColor=none;align=center;verticalAlign=middle;whiteSpace=wrap;rounded=0;fontStyle=1;fontColor=#808080;fontSize=18;" vertex="1" parent="1">
          <mxGeometry x="3013.75" y="620" width="60" height="30" as="geometry" />
        </mxCell>
        <mxCell id="ijA1hd0vn6d_UnfHsXCk-12" value="Core" style="rounded=0;whiteSpace=wrap;html=1;fillColor=#d5e8d4;strokeColor=none;fontSize=18;fontColor=#808080;fontStyle=1" vertex="1" parent="1">
          <mxGeometry x="2978.25" y="210" width="181.25" height="360" as="geometry" />
        </mxCell>
        <mxCell id="ijA1hd0vn6d_UnfHsXCk-13" value="" style="verticalLabelPosition=bottom;verticalAlign=top;html=1;shape=mxgraph.basic.rounded_frame;dx=3;whiteSpace=wrap;strokeColor=#000000;fillColor=#000000;" vertex="1" parent="1">
          <mxGeometry x="1827.38" y="210" width="422.62" height="420" as="geometry" />
        </mxCell>
        <mxCell id="ijA1hd0vn6d_UnfHsXCk-14" value="Core" style="shape=note;size=20;whiteSpace=wrap;html=1;fillColor=#d5e8d4;strokeColor=#82b366;" vertex="1" parent="1">
          <mxGeometry x="1670" y="240" width="100" height="100" as="geometry" />
        </mxCell>
        <mxCell id="ijA1hd0vn6d_UnfHsXCk-15" value="Supporting" style="shape=note;size=20;whiteSpace=wrap;html=1;fillColor=#d0cee2;strokeColor=#56517e;" vertex="1" parent="1">
          <mxGeometry x="1670" y="370" width="100" height="100" as="geometry" />
        </mxCell>
        <mxCell id="ijA1hd0vn6d_UnfHsXCk-16" value="Generic" style="shape=note;size=20;whiteSpace=wrap;html=1;fillColor=#bac8d3;strokeColor=#23445d;" vertex="1" parent="1">
          <mxGeometry x="1670" y="500" width="100" height="100" as="geometry" />
        </mxCell>
        <mxCell id="ijA1hd0vn6d_UnfHsXCk-17" value="" style="ellipse;whiteSpace=wrap;html=1;aspect=fixed;spacing=2;strokeWidth=2;strokeColor=#FFFFFF;fillColor=#a0522d;fontColor=#ffffff;" vertex="1" parent="1">
          <mxGeometry x="3109.5" y="360" width="35" height="35" as="geometry" />
        </mxCell>
        <mxCell id="ijA1hd0vn6d_UnfHsXCk-18" value="&lt;b&gt;Основная цель&lt;/b&gt;: уменьшение посторонней работы котов-тестировщиков&lt;br&gt;&lt;b&gt;Решение&lt;/b&gt;: делегирование рутинной работы специально обученным котам-воркерам" style="text;html=1;strokeColor=none;fillColor=none;align=left;verticalAlign=top;whiteSpace=wrap;rounded=0;" vertex="1" parent="1">
          <mxGeometry x="1790.25" y="50" width="480" height="40" as="geometry" />
        </mxCell>
        <mxCell id="ijA1hd0vn6d_UnfHsXCk-20" value="Увеличение скорости обслуживания" style="shape=note;size=20;whiteSpace=wrap;html=1;fillColor=#d0cee2;strokeColor=#56517e;" vertex="1" parent="1">
          <mxGeometry x="1859.88" y="370" width="100" height="100" as="geometry" />
        </mxCell>
        <mxCell id="ijA1hd0vn6d_UnfHsXCk-23" value="Повышение лояльности клиентов" style="shape=note;size=20;whiteSpace=wrap;html=1;fillColor=#bac8d3;strokeColor=#23445d;" vertex="1" parent="1">
          <mxGeometry x="1859.88" y="500" width="100" height="100" as="geometry" />
        </mxCell>
        <mxCell id="ijA1hd0vn6d_UnfHsXCk-24" value="" style="ellipse;whiteSpace=wrap;html=1;aspect=fixed;strokeWidth=2;strokeColor=#FFFFFF;fillColor=#e51400;fontColor=#ffffff;" vertex="1" parent="1">
          <mxGeometry x="2999.5" y="330" width="35" height="35" as="geometry" />
        </mxCell>
        <mxCell id="ijA1hd0vn6d_UnfHsXCk-25" value="Найм персонала" style="text;html=1;strokeColor=none;fillColor=none;align=center;verticalAlign=middle;whiteSpace=wrap;rounded=0;" vertex="1" parent="1">
          <mxGeometry x="2964.87" y="300" width="104.25" height="30" as="geometry" />
        </mxCell>
        <mxCell id="ijA1hd0vn6d_UnfHsXCk-26" value="Low" style="text;html=1;strokeColor=none;fillColor=none;align=center;verticalAlign=middle;whiteSpace=wrap;rounded=0;" vertex="1" parent="1">
          <mxGeometry x="2661.75" y="690" width="60" height="30" as="geometry" />
        </mxCell>
        <mxCell id="ijA1hd0vn6d_UnfHsXCk-27" value="" style="endArrow=none;dashed=1;html=1;rounded=0;" edge="1" parent="1">
          <mxGeometry width="50" height="50" relative="1" as="geometry">
            <mxPoint x="2900" y="690" as="sourcePoint" />
            <mxPoint x="2899.5" y="190" as="targetPoint" />
          </mxGeometry>
        </mxCell>
        <mxCell id="ijA1hd0vn6d_UnfHsXCk-28" value="" style="endArrow=none;dashed=1;html=1;rounded=0;exitX=0;exitY=0.5;exitDx=0;exitDy=0;" edge="1" parent="1" source="ijA1hd0vn6d_UnfHsXCk-9">
          <mxGeometry width="50" height="50" relative="1" as="geometry">
            <mxPoint x="2789.5" y="450" as="sourcePoint" />
            <mxPoint x="3179.5" y="450" as="targetPoint" />
          </mxGeometry>
        </mxCell>
        <mxCell id="ijA1hd0vn6d_UnfHsXCk-32" value="Выполнение заказа" style="text;html=1;strokeColor=none;fillColor=none;align=center;verticalAlign=middle;whiteSpace=wrap;rounded=0;" vertex="1" parent="1">
          <mxGeometry x="3079.5" y="330" width="124.25" height="30" as="geometry" />
        </mxCell>
        <mxCell id="ijA1hd0vn6d_UnfHsXCk-35" value="" style="ellipse;whiteSpace=wrap;html=1;aspect=fixed;spacing=2;strokeWidth=2;strokeColor=#FFFFFF;fillColor=#e51400;fontColor=#ffffff;" vertex="1" parent="1">
          <mxGeometry x="2819.5" y="577" width="35" height="35" as="geometry" />
        </mxCell>
        <mxCell id="ijA1hd0vn6d_UnfHsXCk-36" value="Увеличение скорости обслуживания" style="text;html=1;strokeColor=none;fillColor=none;align=center;verticalAlign=middle;whiteSpace=wrap;rounded=0;" vertex="1" parent="1">
          <mxGeometry x="2756" y="620" width="138.88" height="30" as="geometry" />
        </mxCell>
        <mxCell id="ijA1hd0vn6d_UnfHsXCk-37" value="" style="ellipse;whiteSpace=wrap;html=1;aspect=fixed;spacing=2;strokeWidth=2;strokeColor=#FFFFFF;direction=south;fillColor=#60a917;fontColor=#ffffff;" vertex="1" parent="1">
          <mxGeometry x="2674.25" y="510" width="35" height="35" as="geometry" />
        </mxCell>
        <mxCell id="ijA1hd0vn6d_UnfHsXCk-38" value="Повышение&amp;nbsp; лояльности клиентов" style="text;html=1;strokeColor=none;fillColor=none;align=center;verticalAlign=middle;whiteSpace=wrap;rounded=0;" vertex="1" parent="1">
          <mxGeometry x="2661.75" y="550" width="140" height="30" as="geometry" />
        </mxCell>
        <mxCell id="ijA1hd0vn6d_UnfHsXCk-41" value="" style="ellipse;whiteSpace=wrap;html=1;aspect=fixed;spacing=2;strokeWidth=2;strokeColor=#FFFFFF;direction=south;fillColor=#e51400;fontColor=#ffffff;" vertex="1" parent="1">
          <mxGeometry x="2329.75" y="242.5" width="35" height="35" as="geometry" />
        </mxCell>
        <mxCell id="ijA1hd0vn6d_UnfHsXCk-42" value="Поддомен" style="text;html=1;strokeColor=none;fillColor=none;align=left;verticalAlign=middle;whiteSpace=wrap;rounded=0;" vertex="1" parent="1">
          <mxGeometry x="2370" y="242.5" width="129.75" height="30" as="geometry" />
        </mxCell>
        <mxCell id="ijA1hd0vn6d_UnfHsXCk-43" value="" style="ellipse;whiteSpace=wrap;html=1;aspect=fixed;spacing=2;strokeWidth=2;strokeColor=#FFFFFF;fillColor=#a0522d;fontColor=#ffffff;" vertex="1" parent="1">
          <mxGeometry x="2329.75" y="300" width="35" height="35" as="geometry" />
        </mxCell>
        <mxCell id="ijA1hd0vn6d_UnfHsXCk-44" value="Не задача нашей системы" style="text;html=1;strokeColor=none;fillColor=none;align=left;verticalAlign=middle;whiteSpace=wrap;rounded=0;" vertex="1" parent="1">
          <mxGeometry x="2370" y="302.5" width="129.75" height="30" as="geometry" />
        </mxCell>
        <mxCell id="ijA1hd0vn6d_UnfHsXCk-45" value="" style="ellipse;whiteSpace=wrap;html=1;aspect=fixed;spacing=2;strokeWidth=2;strokeColor=#FFFFFF;direction=south;fillColor=#60a917;fontColor=#ffffff;" vertex="1" parent="1">
          <mxGeometry x="2329.75" y="360" width="35" height="35" as="geometry" />
        </mxCell>
        <mxCell id="ijA1hd0vn6d_UnfHsXCk-46" value="Покупаем у подрядчика" style="text;html=1;strokeColor=none;fillColor=none;align=left;verticalAlign=middle;whiteSpace=wrap;rounded=0;" vertex="1" parent="1">
          <mxGeometry x="2370" y="360" width="129.75" height="30" as="geometry" />
        </mxCell>
        <mxCell id="ijA1hd0vn6d_UnfHsXCk-47" value="" style="endArrow=classic;html=1;rounded=0;strokeWidth=2;" edge="1" parent="1">
          <mxGeometry width="50" height="50" relative="1" as="geometry">
            <mxPoint x="2661.75" y="690" as="sourcePoint" />
            <mxPoint x="3181.75" y="690" as="targetPoint" />
          </mxGeometry>
        </mxCell>
        <mxCell id="ijA1hd0vn6d_UnfHsXCk-48" value="" style="endArrow=classic;html=1;rounded=0;strokeWidth=2;" edge="1" parent="1">
          <mxGeometry width="50" height="50" relative="1" as="geometry">
            <mxPoint x="2662" y="690" as="sourcePoint" />
            <mxPoint x="2661.75" y="180" as="targetPoint" />
          </mxGeometry>
        </mxCell>
      </root>
    </mxGraphModel>
  </diagram>
</mxfile>
